<?xml version="1.0" standalone="no"?>
<!DOCTYPE svg PUBLIC "-//W3C//DTD SVG 20010904//EN"
 "http://www.w3.org/TR/2001/REC-SVG-20010904/DTD/svg10.dtd">
<svg version="1.0" xmlns="http://www.w3.org/2000/svg"
 width="80.000000pt" height="80.000000pt" viewBox="0 0 1024.000000 1024.000000"
 preserveAspectRatio="xMidYMid meet">
<metadata>
Created by potrace 1.16, written by Peter Selinger 2001-2019
</metadata>
<g transform="translate(0.000000,1024.000000) scale(0.100000,-0.100000)"
fill="#000000" stroke="none">
<path d="M5650 7466 c89 -37 201 -96 265 -139 155 -105 334 -274 433 -411 104
-143 101 -141 161 -130 l53 9 -46 90 c-53 105 -160 251 -254 348 -66 68 -222
197 -238 197 -4 0 1 -6 11 -14 18 -13 17 -14 -12 -29 -27 -15 -32 -15 -43 -2
-13 15 -111 22 -109 8 3 -21 -5 -20 -51 7 -28 17 -55 30 -59 30 -5 0 -38 14
-74 30 -37 17 -72 30 -79 30 -7 -1 12 -11 42 -24z"/>
<path d="M4360 7369 c-99 -60 -320 -262 -320 -292 0 -5 -4 -5 -10 -2 -5 3 -10
0 -10 -7 -1 -18 -35 -58 -50 -58 -7 0 -10 -7 -6 -15 7 -20 -35 -60 -46 -43 -4
7 -8 8 -8 3 0 -6 5 -16 12 -23 7 -7 8 -12 3 -13 -6 0 -21 -2 -34 -5 -14 -2
-32 3 -43 12 -13 13 -18 14 -18 4 0 -7 -3 -10 -7 -7 -3 4 -26 -35 -51 -86 -24
-50 -48 -100 -53 -109 -5 -10 -9 -25 -9 -35 0 -19 -18 -79 -31 -105 -5 -10 -9
-29 -9 -42 0 -14 -4 -28 -10 -31 -5 -3 -10 -20 -10 -36 0 -16 -7 -41 -16 -54
-20 -30 -11 -58 22 -73 56 -26 60 -21 103 138 16 58 41 136 55 174 15 38 24
76 21 85 -3 8 -3 12 1 8 9 -9 35 28 78 113 79 153 260 357 409 459 67 47 85
61 75 61 -2 0 -19 -10 -38 -21z"/>
<path d="M7778 6973 c-20 -2 -42 -10 -48 -18 -10 -12 -5 -13 26 -8 27 4 35 3
30 -5 -4 -7 -14 -12 -22 -12 -8 0 -14 -6 -14 -14 0 -8 -16 -17 -37 -22 -31 -6
-14 -9 84 -15 88 -5 133 -13 165 -27 23 -11 35 -21 26 -21 -9 -1 -38 -12 -65
-25 -26 -13 -65 -27 -87 -30 -21 -4 -46 -11 -55 -15 -87 -42 -95 -57 -43 -82
31 -16 38 -16 120 3 193 43 303 48 367 17 68 -34 53 -70 -52 -124 -32 -17 -60
-32 -63 -35 -16 -16 -171 -93 -187 -93 -7 0 -13 -3 -13 -6 0 -4 -21 -13 -47
-20 -27 -8 -52 -17 -58 -21 -12 -8 -141 -47 -170 -52 -11 -2 -22 -5 -25 -8 -3
-3 -39 -16 -80 -29 -41 -12 -102 -31 -135 -42 -33 -11 -65 -21 -72 -23 -7 -1
-16 -5 -19 -9 -4 -4 -17 -7 -29 -7 -11 0 -25 -4 -31 -10 -5 -5 -23 -11 -39
-14 -30 -3 -40 -6 -100 -29 -16 -7 -32 -12 -35 -13 -58 -11 -171 -46 -244 -76
-38 -15 -78 -28 -89 -28 -23 0 -40 -5 -172 -49 -83 -28 -290 -82 -325 -85 -8
0 -21 -7 -28 -13 -7 -7 -20 -13 -29 -13 -8 0 -43 -13 -77 -29 -33 -16 -92 -35
-131 -41 -38 -7 -112 -21 -162 -31 -51 -10 -96 -19 -100 -19 -15 0 14 18 47
29 19 7 53 27 75 46 l40 34 -45 20 c-34 16 -66 21 -131 21 -80 0 -86 -2 -98
-24 -10 -19 -11 -35 -1 -82 16 -76 8 -128 -33 -214 -24 -50 -29 -70 -20 -70
21 0 235 55 343 88 52 16 176 50 275 76 99 26 236 65 305 86 69 22 143 43 165
48 22 6 166 46 320 90 154 44 348 99 430 122 468 131 702 221 825 318 58 45
148 140 166 174 31 60 3 134 -73 192 -26 20 -75 57 -108 82 -33 25 -87 60
-120 79 -63 35 -163 71 -172 62 -2 -3 -23 1 -45 9 -22 8 -41 13 -42 12 0 -1
-18 -3 -38 -5z"/>
<path d="M7471 6686 l-1 -69 -19 24 c-10 13 -26 38 -35 54 -16 30 -16 30 -10
-35 3 -36 7 -74 9 -86 3 -15 -3 -24 -21 -32 -33 -16 -44 -15 -44 3 0 8 -4 15
-10 15 -5 0 -7 -8 -3 -17 8 -22 3 -18 -37 32 l-32 40 7 -75 c4 -41 13 -91 19
-110 10 -31 15 -35 46 -34 19 1 62 12 95 25 l60 24 -2 70 c-1 39 -6 108 -11
155 l-9 85 -2 -69z"/>
<path d="M1790 6625 c0 -31 74 -132 154 -210 142 -140 275 -206 616 -305 91
-26 224 -62 295 -78 457 -109 569 -134 735 -166 241 -46 489 -100 609 -132
128 -34 268 -109 352 -188 59 -56 76 -66 165 -96 193 -65 409 -50 601 41 166
79 228 200 192 371 -19 89 -61 153 -122 185 -28 14 -29 14 -22 -6 10 -31 -3
-60 -35 -76 -64 -33 -93 -127 -66 -217 22 -75 56 -105 128 -110 32 -3 61 -8
65 -12 16 -16 -47 -56 -87 -56 -117 0 -199 94 -201 232 -1 62 -1 62 -11 23 -5
-22 -8 -55 -6 -72 4 -31 -5 -43 -16 -24 -3 4 -19 11 -36 14 -19 4 -30 13 -30
23 0 10 -2 15 -5 12 -6 -6 10 -121 21 -155 4 -14 3 -15 -4 -4 -6 8 -12 9 -16
3 -11 -18 -199 -35 -319 -29 -113 5 -158 17 -185 50 -15 18 23 54 138 132 47
32 77 55 68 52 -11 -4 -22 3 -32 18 -19 30 -63 42 -181 51 -129 9 -134 10
-140 16 -3 3 40 9 96 13 66 4 97 10 88 16 -9 6 3 9 36 9 31 0 45 3 37 9 -17
10 -105 2 -113 -11 -7 -10 -273 -6 -349 6 -25 4 -53 7 -62 7 -10 0 -18 3 -18
7 0 4 -87 8 -193 8 -168 1 -201 4 -262 24 -38 12 -89 26 -113 31 -23 5 -57 20
-75 33 -26 20 -56 28 -162 42 -71 9 -165 17 -207 18 -43 0 -70 4 -60 8 9 4 -5
5 -33 3 -32 -3 -43 -2 -30 3 16 7 11 10 -25 16 -25 4 -92 19 -150 33 -62 15
-130 26 -165 25 -35 -1 -54 2 -47 7 19 11 -8 22 -37 14 -12 -3 -21 -1 -21 6 0
6 -13 11 -29 11 -16 0 -44 7 -64 15 -19 8 -37 12 -40 8 -4 -3 -18 2 -31 11
-14 9 -32 16 -39 16 -8 0 -63 29 -122 65 -59 36 -113 65 -121 65 -8 0 -14 8
-14 17 0 9 -3 14 -6 10 -4 -3 -14 2 -23 11 -9 10 -12 12 -7 5 6 -10 4 -12 -8
-7 -9 3 -16 10 -16 15 0 5 -6 8 -12 7 -7 -2 -12 2 -11 9 2 7 -4 10 -12 7 -9
-4 -21 -2 -28 4 -6 5 -31 13 -53 17 -41 6 -66 26 -107 85 -9 13 -17 20 -17 15z"/>
<path d="M2590 6592 c0 -11 11 -38 51 -127 5 -11 18 -47 29 -79 25 -74 45
-106 68 -106 9 0 49 -11 87 -25 39 -13 81 -24 95 -24 16 0 8 5 -23 13 -45 12
-72 26 -51 26 15 0 4 73 -15 94 -9 10 -32 26 -52 36 -38 20 -99 73 -99 87 0 4
-15 24 -33 43 -18 19 -39 44 -45 55 -6 11 -12 14 -12 7z"/>
<path d="M2880 5937 c0 -61 115 -117 255 -124 85 -5 175 8 175 25 -1 22 -25
32 -110 47 -52 9 -137 29 -188 45 -115 37 -132 38 -132 7z"/>
<path d="M7281 5902 c-19 -23 -22 -34 -17 -74 5 -45 3 -48 -20 -54 -19 -5 -22
-9 -12 -15 8 -5 -7 -9 -40 -9 -33 0 -59 -6 -68 -14 -7 -8 -18 -16 -23 -18 -5
-1 -11 -19 -13 -38 -3 -32 -1 -35 22 -32 49 7 180 64 209 91 58 55 66 183 11
188 -17 2 -33 -7 -49 -25z"/>
<path d="M6851 5807 c-14 -7 -36 -23 -50 -37 -23 -22 -25 -33 -24 -96 1 -88
31 -143 93 -170 25 -11 40 -24 40 -36 0 -26 -64 -24 -120 5 -74 37 -109 108
-111 222 0 52 -2 56 -11 32 -5 -15 -13 -25 -18 -22 -4 2 -20 -6 -35 -20 -31
-26 -36 -57 -22 -130 5 -28 5 -36 -2 -25 -6 8 -11 10 -11 5 0 -16 -111 -36
-225 -42 -86 -4 -107 -2 -148 16 -58 25 -67 44 -36 78 l24 26 -52 -7 c-29 -4
-83 -17 -120 -29 -68 -23 -88 -44 -61 -66 25 -22 140 -92 196 -120 117 -58
154 -66 317 -65 132 0 162 4 250 28 140 39 165 54 213 128 55 85 66 118 58
180 -18 131 -69 182 -145 145z"/>
<path d="M3427 5802 c-4 -5 -26 -12 -49 -15 -24 -3 -77 -15 -118 -27 -86 -24
-162 -20 -243 11 -26 11 -50 19 -52 19 -12 0 -3 -78 12 -100 32 -49 77 -90 98
-90 38 0 478 149 498 169 7 7 3 13 -16 20 -42 16 -124 24 -130 13z"/>
<path d="M2273 5613 c-68 -2 -123 -8 -123 -13 0 -5 -9 -12 -20 -15 -32 -10
-23 -33 18 -44 48 -13 265 -37 457 -51 213 -15 213 -15 229 -54 26 -63 91 -92
326 -150 312 -77 720 -107 986 -71 156 20 343 59 459 95 137 42 143 51 57 84
-24 9 -67 31 -96 50 -63 40 -99 48 -141 30 -18 -7 -35 -11 -38 -8 -2 3 -24 -3
-48 -14 -57 -25 -130 -42 -177 -42 -21 0 -42 -4 -48 -9 -5 -5 -31 -12 -59 -15
-89 -11 -369 -25 -395 -21 -36 7 -292 23 -460 29 -207 8 -277 32 -147 50 53 8
167 43 181 56 14 14 -45 37 -124 49 -41 6 -149 15 -239 21 -90 5 -169 14 -176
20 -7 6 -37 8 -71 4 -36 -3 -86 0 -126 8 -47 10 -69 11 -72 4 -3 -7 -5 -6 -5
2 -1 6 -7 11 -13 10 -7 -1 -68 -4 -135 -5z"/>
<path d="M6270 5225 c-7 -8 -19 -15 -27 -15 -7 0 -30 -18 -51 -41 -95 -105
-246 -227 -331 -266 -20 -9 -38 -20 -41 -23 -9 -11 -73 -37 -135 -55 -33 -10
-64 -21 -70 -25 -5 -4 -26 -10 -45 -14 -19 -4 -57 -12 -85 -18 -77 -16 -531
-22 -569 -7 -16 7 -46 12 -67 10 -20 -1 -40 2 -44 8 -3 6 -21 11 -40 11 -19 0
-37 5 -40 10 -3 6 -17 10 -30 10 -13 0 -27 5 -30 10 -3 6 -16 10 -29 10 -44 0
-292 135 -376 205 -73 60 -88 68 -145 77 -55 9 -68 8 -90 -6 -15 -10 -25 -21
-23 -26 10 -31 295 -235 428 -308 95 -51 156 -74 300 -111 204 -52 403 -63
633 -36 244 29 408 83 587 194 85 53 131 91 243 205 78 79 137 148 137 158 0
11 5 16 11 13 6 -4 5 2 -3 14 -7 12 -16 21 -20 21 -3 0 -13 2 -21 5 -7 3 -20
-1 -27 -10z"/>
</g>
</svg>
